<svg xmlns="http://www.w3.org/2000/svg" viewBox="0 0 2400 1800" width="2400" height="1800" font-family="Inter, -apple-system, sans-serif">
<defs>
<style>
 .title { font-size: 24px; font-weight: 700; fill: #1A1A2E; }
 .subtitle { font-size: 14px; font-weight: 400; fill: #6B7280; }
 .entity-name { font-size: 14px; font-weight: 700; fill: #FFFFFF; }
 .pk { font-size: 11px; font-weight: 600; fill: #374151; }
 .field { font-size: 11px; font-weight: 400; fill: #4B5563; }
 .fk { font-size: 11px; font-weight: 400; fill: #2563EB; }
 .type { font-size: 10px; font-weight: 400; fill: #9CA3AF; }
 .section-label { font-size: 10px; font-weight: 700; fill: #6B7280; letter-spacing: 0.05em; text-transform: uppercase; }
 .rel-label { font-size: 10px; font-weight: 500; fill: #6B7280; }
 .process-title { font-size: 16px; font-weight: 700; fill: #1F2937; }
 .step-text { font-size: 12px; font-weight: 500; fill: #FFFFFF; }
 .step-desc { font-size: 10px; font-weight: 400; fill: #6B7280; }
 .decision-text { font-size: 11px; font-weight: 600; fill: #FFFFFF; }
 .swim-label { font-size: 12px; font-weight: 700; fill: #374151; }
 .status-text { font-size: 10px; font-weight: 600; }
 .note-text { font-size: 10px; font-weight: 400; fill: #6B7280; font-style: italic; }
</style>
<marker id="arrow" viewBox="0 0 10 7" refX="10" refY="3.5" markerWidth="10" markerHeight="7" orient="auto-start-reverse"><path d="M0 0 L10 3.5 L0 7 Z" fill="#9CA3AF"/></marker>
<marker id="arrow-blue" viewBox="0 0 10 7" refX="10" refY="3.5" markerWidth="10" markerHeight="7" orient="auto-start-reverse"><path d="M0 0 L10 3.5 L0 7 Z" fill="#3B82F6"/></marker>
<marker id="diamond" viewBox="0 0 12 8" refX="6" refY="4" markerWidth="12" markerHeight="8" orient="auto"><path d="M0 4 L6 0 L12 4 L6 8 Z" fill="#9CA3AF"/></marker>
<marker id="diamond-filled" viewBox="0 0 12 8" refX="6" refY="4" markerWidth="12" markerHeight="8" orient="auto"><path d="M0 4 L6 0 L12 4 L6 8 Z" fill="#3B82F6"/></marker>
</defs>
<rect width="2400" height="1800" fill="#FAFBFC"/>

<!-- Title -->
<text x="1200" y="50" text-anchor="middle" class="title">Bearing — Core Domain Schema</text>
<text x="1200" y="75" text-anchor="middle" class="subtitle">Organizations, Users, Connections, Assessments, and Findings</text>

<!-- ==================== ORGANIZATION ==================== -->
<!-- Shadow -->
<rect x="102" y="122" width="340" height="260" rx="8" fill="#D1D5DB" opacity="0.4"/>
<!-- Card -->
<rect x="100" y="120" width="340" height="260" rx="8" fill="#FFFFFF" stroke="#E5E7EB" stroke-width="1"/>
<!-- Header -->
<rect x="100" y="120" width="340" height="36" rx="8" fill="#EC4899"/>
<rect x="100" y="140" width="340" height="16" fill="#EC4899"/>
<text x="270" y="144" text-anchor="middle" class="entity-name">ORGANIZATION</text>
<!-- Fields -->
<text x="120" y="178" class="pk">&#128273; id</text><text x="360" y="178" text-anchor="end" class="type">uuid</text>
<rect x="120" y="186" width="300" height="1" fill="#F3F4F6"/>
<text x="120" y="200" class="field">name</text><text x="360" y="200" text-anchor="end" class="type">text</text>
<rect x="120" y="208" width="300" height="1" fill="#F3F4F6"/>
<text x="120" y="222" class="field">slug</text><text x="360" y="222" text-anchor="end" class="type">text, unique</text>
<rect x="120" y="230" width="300" height="1" fill="#F3F4F6"/>
<text x="120" y="244" class="field">brand_config</text><text x="360" y="244" text-anchor="end" class="type">jsonb</text>
<rect x="120" y="252" width="300" height="1" fill="#F3F4F6"/>
<text x="120" y="266" class="field">rate_card</text><text x="360" y="266" text-anchor="end" class="type">jsonb</text>
<rect x="120" y="274" width="300" height="1" fill="#F3F4F6"/>
<text x="120" y="288" class="field">created_at</text><text x="360" y="288" text-anchor="end" class="type">timestamptz</text>

<!-- ==================== USER ==================== -->
<rect x="102" y="442" width="340" height="260" rx="8" fill="#D1D5DB" opacity="0.4"/>
<rect x="100" y="440" width="340" height="260" rx="8" fill="#FFFFFF" stroke="#E5E7EB" stroke-width="1"/>
<rect x="100" y="440" width="340" height="36" rx="8" fill="#EC4899"/>
<rect x="100" y="460" width="340" height="16" fill="#EC4899"/>
<text x="270" y="464" text-anchor="middle" class="entity-name">USER</text>
<text x="120" y="498" class="pk">&#128273; id</text><text x="360" y="498" text-anchor="end" class="type">uuid</text>
<rect x="120" y="506" width="300" height="1" fill="#F3F4F6"/>
<text x="120" y="520" class="fk">&#128279; org_id</text><text x="360" y="520" text-anchor="end" class="type">uuid</text>
<rect x="120" y="528" width="300" height="1" fill="#F3F4F6"/>
<text x="120" y="542" class="field">email</text><text x="360" y="542" text-anchor="end" class="type">text</text>
<rect x="120" y="550" width="300" height="1" fill="#F3F4F6"/>
<text x="120" y="564" class="field">name</text><text x="360" y="564" text-anchor="end" class="type">text</text>
<rect x="120" y="572" width="300" height="1" fill="#F3F4F6"/>
<text x="120" y="586" class="field">role</text><text x="360" y="586" text-anchor="end" class="type">enum: admin|member|viewer</text>
<rect x="120" y="594" width="300" height="1" fill="#F3F4F6"/>
<text x="120" y="608" class="field">created_at</text><text x="360" y="608" text-anchor="end" class="type">timestamptz</text>

<!-- ==================== INSTANCE_CONNECTION ==================== -->
<rect x="562" y="122" width="380" height="440" rx="8" fill="#D1D5DB" opacity="0.4"/>
<rect x="560" y="120" width="380" height="440" rx="8" fill="#FFFFFF" stroke="#E5E7EB" stroke-width="1"/>
<rect x="560" y="120" width="380" height="36" rx="8" fill="#0EA5E9"/>
<rect x="560" y="140" width="380" height="16" fill="#0EA5E9"/>
<text x="750" y="144" text-anchor="middle" class="entity-name">INSTANCE_CONNECTION</text>
<text x="580" y="178" class="pk">&#128273; id</text><text x="860" y="178" text-anchor="end" class="type">uuid</text>
<rect x="580" y="186" width="340" height="1" fill="#F3F4F6"/>
<text x="580" y="200" class="fk">&#128279; org_id</text><text x="860" y="200" text-anchor="end" class="type">uuid</text>
<rect x="580" y="208" width="340" height="1" fill="#F3F4F6"/>
<text x="580" y="222" class="field">customer_name</text><text x="860" y="222" text-anchor="end" class="type">text</text>
<rect x="580" y="230" width="340" height="1" fill="#F3F4F6"/>
<text x="580" y="244" class="field">instance_url</text><text x="860" y="244" text-anchor="end" class="type">text</text>
<rect x="580" y="252" width="340" height="1" fill="#F3F4F6"/>
<text x="580" y="266" class="field">connection_type</text><text x="860" y="266" text-anchor="end" class="type">enum: oauth|basic|export</text>
<rect x="580" y="274" width="340" height="1" fill="#F3F4F6"/>
<text x="580" y="288" class="field">credentials_encrypted</text><text x="860" y="288" text-anchor="end" class="type">jsonb</text>
<rect x="580" y="296" width="340" height="1" fill="#F3F4F6"/>
<text x="580" y="310" class="field">servicenow_version</text><text x="860" y="310" text-anchor="end" class="type">text</text>
<rect x="580" y="318" width="340" height="1" fill="#F3F4F6"/>
<text x="580" y="332" class="field">licensed_plugins</text><text x="860" y="332" text-anchor="end" class="type">jsonb</text>
<rect x="580" y="340" width="340" height="1" fill="#F3F4F6"/>
<text x="580" y="354" class="field">last_connected_at</text><text x="860" y="354" text-anchor="end" class="type">timestamptz</text>
<rect x="580" y="362" width="340" height="1" fill="#F3F4F6"/>
<text x="580" y="376" class="field">status</text><text x="860" y="376" text-anchor="end" class="type">enum: pending|active|error|disconnected</text>
<rect x="580" y="384" width="340" height="1" fill="#F3F4F6"/>
<text x="580" y="398" class="field">created_at</text><text x="860" y="398" text-anchor="end" class="type">timestamptz</text>

<!-- ==================== ASSESSMENT ==================== -->
<rect x="1062" y="122" width="400" height="480" rx="8" fill="#D1D5DB" opacity="0.4"/>
<rect x="1060" y="120" width="400" height="480" rx="8" fill="#FFFFFF" stroke="#E5E7EB" stroke-width="1"/>
<rect x="1060" y="120" width="400" height="36" rx="8" fill="#6366F1"/>
<rect x="1060" y="140" width="400" height="16" fill="#6366F1"/>
<text x="1260" y="144" text-anchor="middle" class="entity-name">ASSESSMENT</text>
<text x="1080" y="178" class="pk">&#128273; id</text><text x="1380" y="178" text-anchor="end" class="type">uuid</text>
<rect x="1080" y="186" width="360" height="1" fill="#F3F4F6"/>
<text x="1080" y="200" class="fk">&#128279; org_id</text><text x="1380" y="200" text-anchor="end" class="type">uuid</text>
<rect x="1080" y="208" width="360" height="1" fill="#F3F4F6"/>
<text x="1080" y="222" class="fk">&#128279; instance_connection_id</text><text x="1380" y="222" text-anchor="end" class="type">uuid</text>
<rect x="1080" y="230" width="360" height="1" fill="#F3F4F6"/>
<text x="1080" y="244" class="field">scan_type</text><text x="1380" y="244" text-anchor="end" class="type">enum: full_api|export_ingest|instance_scan_import</text>
<rect x="1080" y="252" width="360" height="1" fill="#F3F4F6"/>
<text x="1080" y="266" class="field">status</text><text x="1380" y="266" text-anchor="end" class="type">enum: queued|scanning|analyzing|scoring|complete|error</text>
<rect x="1080" y="274" width="360" height="1" fill="#F3F4F6"/>
<text x="1080" y="288" class="field">modules_enabled</text><text x="1380" y="288" text-anchor="end" class="type">jsonb</text>
<rect x="1080" y="296" width="360" height="1" fill="#F3F4F6"/>
<text x="1080" y="310" class="field">health_score</text><text x="1380" y="310" text-anchor="end" class="type">integer 0-100</text>
<rect x="1080" y="318" width="360" height="1" fill="#F3F4F6"/>
<text x="1080" y="332" class="field">domain_scores</text><text x="1380" y="332" text-anchor="end" class="type">jsonb</text>
<rect x="1080" y="340" width="360" height="1" fill="#F3F4F6"/>
<text x="1080" y="354" class="field">scan_metadata</text><text x="1380" y="354" text-anchor="end" class="type">jsonb</text>
<rect x="1080" y="362" width="360" height="1" fill="#F3F4F6"/>
<text x="1080" y="376" class="field">expires_at</text><text x="1380" y="376" text-anchor="end" class="type">timestamptz</text>
<rect x="1080" y="384" width="360" height="1" fill="#F3F4F6"/>
<text x="1080" y="398" class="field">created_at</text><text x="1380" y="398" text-anchor="end" class="type">timestamptz</text>

<!-- ==================== FINDING ==================== -->
<rect x="1062" y="682" width="400" height="680" rx="8" fill="#D1D5DB" opacity="0.4"/>
<rect x="1060" y="680" width="400" height="680" rx="8" fill="#FFFFFF" stroke="#E5E7EB" stroke-width="1"/>
<rect x="1060" y="680" width="400" height="36" rx="8" fill="#10B981"/>
<rect x="1060" y="700" width="400" height="16" fill="#10B981"/>
<text x="1260" y="704" text-anchor="middle" class="entity-name">FINDING</text>
<text x="1080" y="738" class="pk">&#128273; id</text><text x="1380" y="738" text-anchor="end" class="type">uuid</text>
<rect x="1080" y="746" width="360" height="1" fill="#F3F4F6"/>
<text x="1080" y="760" class="fk">&#128279; org_id</text><text x="1380" y="760" text-anchor="end" class="type">uuid</text>
<rect x="1080" y="768" width="360" height="1" fill="#F3F4F6"/>
<text x="1080" y="782" class="fk">&#128279; assessment_id</text><text x="1380" y="782" text-anchor="end" class="type">uuid</text>
<rect x="1080" y="790" width="360" height="1" fill="#F3F4F6"/>
<text x="1080" y="804" class="field">module</text><text x="1380" y="804" text-anchor="end" class="type">text</text>
<rect x="1080" y="812" width="360" height="1" fill="#F3F4F6"/>
<text x="1080" y="826" class="field">category</text><text x="1380" y="826" text-anchor="end" class="type">text</text>
<rect x="1080" y="834" width="360" height="1" fill="#F3F4F6"/>
<text x="1080" y="848" class="field">severity</text><text x="1380" y="848" text-anchor="end" class="type">enum: critical|high|medium|low|info</text>
<rect x="1080" y="856" width="360" height="1" fill="#F3F4F6"/>
<text x="1080" y="870" class="field">severity_score</text><text x="1380" y="870" text-anchor="end" class="type">integer 1-4</text>
<rect x="1080" y="878" width="360" height="1" fill="#F3F4F6"/>
<text x="1080" y="892" class="field">effort_tshirt</text><text x="1380" y="892" text-anchor="end" class="type">enum: XS|S|M|L|XL</text>
<rect x="1080" y="900" width="360" height="1" fill="#F3F4F6"/>
<text x="1080" y="914" class="field">effort_hours_low</text><text x="1380" y="914" text-anchor="end" class="type">integer</text>
<rect x="1080" y="922" width="360" height="1" fill="#F3F4F6"/>
<text x="1080" y="936" class="field">effort_hours_high</text><text x="1380" y="936" text-anchor="end" class="type">integer</text>
<rect x="1080" y="944" width="360" height="1" fill="#F3F4F6"/>
<text x="1080" y="958" class="field">risk_score</text><text x="1380" y="958" text-anchor="end" class="type">integer 1-5</text>
<rect x="1080" y="966" width="360" height="1" fill="#F3F4F6"/>
<text x="1080" y="980" class="field">composite_score</text><text x="1380" y="980" text-anchor="end" class="type">decimal</text>
<rect x="1080" y="988" width="360" height="1" fill="#F3F4F6"/>
<text x="1080" y="1002" class="field">title</text><text x="1380" y="1002" text-anchor="end" class="type">text</text>
<rect x="1080" y="1010" width="360" height="1" fill="#F3F4F6"/>
<text x="1080" y="1024" class="field">description</text><text x="1380" y="1024" text-anchor="end" class="type">text</text>
<rect x="1080" y="1032" width="360" height="1" fill="#F3F4F6"/>
<text x="1080" y="1046" class="field">evidence</text><text x="1380" y="1046" text-anchor="end" class="type">jsonb</text>
<rect x="1080" y="1054" width="360" height="1" fill="#F3F4F6"/>
<text x="1080" y="1068" class="field">remediation_pattern</text><text x="1380" y="1068" text-anchor="end" class="type">text</text>
<rect x="1080" y="1076" width="360" height="1" fill="#F3F4F6"/>
<text x="1080" y="1090" class="field">affected_count</text><text x="1380" y="1090" text-anchor="end" class="type">integer</text>
<rect x="1080" y="1098" width="360" height="1" fill="#F3F4F6"/>
<text x="1080" y="1112" class="field">pathfinder_relevant</text><text x="1380" y="1112" text-anchor="end" class="type">boolean</text>
<rect x="1080" y="1120" width="360" height="1" fill="#F3F4F6"/>
<text x="1080" y="1134" class="field">created_at</text><text x="1380" y="1134" text-anchor="end" class="type">timestamptz</text>

<!-- ==================== RELATIONSHIPS ==================== -->
<!-- ORGANIZATION 1→N USER -->
<path d="M 270 380 L 270 440" stroke="#EC4899" stroke-width="2" marker-end="url(#arrow)"/>
<text x="230" y="415" class="rel-label">1 : N</text>

<!-- ORGANIZATION 1→N INSTANCE_CONNECTION -->
<path d="M 440 250 L 560 250" stroke="#EC4899" stroke-width="2" marker-end="url(#arrow)"/>
<text x="500" y="242" class="rel-label">1 : N</text>

<!-- ORGANIZATION 1→N ASSESSMENT -->
<path d="M 440 200 Q 750 100 1060 200" stroke="#EC4899" stroke-width="2" fill="none" marker-end="url(#arrow)"/>
<text x="750" y="130" class="rel-label">1 : N</text>

<!-- INSTANCE_CONNECTION 1→N ASSESSMENT -->
<path d="M 940 300 L 1060 300" stroke="#0EA5E9" stroke-width="2" marker-end="url(#arrow)"/>
<text x="1000" y="292" class="rel-label">1 : N</text>

<!-- ASSESSMENT 1→N FINDING -->
<path d="M 1260 600 L 1260 680" stroke="#6366F1" stroke-width="2" marker-end="url(#arrow)"/>
<text x="1220" y="645" class="rel-label">1 : N</text>

<!-- Legend -->
<rect x="100" y="1420" width="800" height="60" rx="8" fill="#F3F4F6" stroke="#E5E7EB" stroke-width="1"/>
<text x="120" y="1445" class="section-label">LEGEND</text>
<text x="200" y="1445" class="pk">&#128273; Primary Key</text>
<text x="350" y="1445" class="fk">&#128279; Foreign Key</text>
<rect x="500" y="1432" width="14" height="14" rx="3" fill="#EC4899"/>
<text x="520" y="1445" class="rel-label">Auth/Org</text>
<rect x="590" y="1432" width="14" height="14" rx="3" fill="#0EA5E9"/>
<text x="610" y="1445" class="rel-label">ServiceNow</text>
<rect x="700" y="1432" width="14" height="14" rx="3" fill="#6366F1"/>
<text x="720" y="1445" class="rel-label">Assessment</text>
<rect x="810" y="1432" width="14" height="14" rx="3" fill="#10B981"/>
<text x="830" y="1445" class="rel-label">Scanning</text>
<text x="120" y="1465" class="note-text">All entities include org_id for multi-tenant row-level security (RLS). UUIDs generated by Supabase.</text>
</svg>