<svg xmlns="http://www.w3.org/2000/svg" viewBox="0 0 1200 800" width="1200" height="800">
  <defs>
    <style>
      @import url('https://fonts.googleapis.com/css2?family=Syne:wght@400;600;700&amp;family=DM+Sans:wght@400;500;600&amp;family=Space+Mono&amp;display=swap');
      .heading { font-family: 'Syne', sans-serif; font-weight: 700; }
      .body { font-family: 'DM Sans', sans-serif; font-weight: 500; }
      .mono { font-family: 'Space Mono', monospace; }
      .label { font-family: 'DM Sans', sans-serif; font-weight: 600; }
    </style>
    <marker id="flowArrow" markerWidth="12" markerHeight="8" refX="12" refY="4" orient="auto">
      <polygon points="0 0, 12 4, 0 8" fill="#39FF14"/>
    </marker>
    <marker id="dataArrow" markerWidth="10" markerHeight="7" refX="10" refY="3.5" orient="auto">
      <polygon points="0 0, 10 3.5, 0 7" fill="#A8A29E"/>
    </marker>
    <filter id="glowBearing">
      <feGaussianBlur stdDeviation="6" result="blur"/>
      <feMerge><feMergeNode in="blur"/><feMergeNode in="SourceGraphic"/></feMerge>
    </filter>
    <linearGradient id="bearingGlow" x1="0%" y1="0%" x2="100%" y2="100%">
      <stop offset="0%" style="stop-color:#39FF14;stop-opacity:0.25"/>
      <stop offset="100%" style="stop-color:#39FF14;stop-opacity:0.05"/>
    </linearGradient>
  </defs>

  <!-- Background -->
  <rect width="1200" height="800" fill="#1C1917"/>

  <!-- Title -->
  <text x="600" y="42" text-anchor="middle" class="heading" fill="#FAFAF9" font-size="24">AVENNORTH PRODUCT SUITE</text>
  <text x="600" y="65" text-anchor="middle" class="body" fill="#A8A29E" font-size="13">Assess  --  Discover  --  Map  --  Respond  --  Guide</text>
  <line x1="400" y1="75" x2="800" y2="75" stroke="#39FF14" stroke-width="1" opacity="0.5"/>

  <!-- ============ NARRATIVE FLOW (Top Bar) ============ -->
  <rect x="60" y="95" width="1080" height="40" rx="20" fill="#292524" stroke="#A8A29E" stroke-width="0.8"/>

  <circle cx="160" cy="115" r="12" fill="#39FF14"/>
  <text x="160" y="119" text-anchor="middle" class="heading" fill="#1C1917" font-size="10">1</text>
  <text x="185" y="119" class="label" fill="#39FF14" font-size="11">ASSESS</text>

  <line x1="245" y1="115" x2="310" y2="115" stroke="#39FF14" stroke-width="1.5" marker-end="url(#flowArrow)"/>

  <circle cx="370" cy="115" r="12" fill="#39FF14" opacity="0.8"/>
  <text x="370" y="119" text-anchor="middle" class="heading" fill="#1C1917" font-size="10">2</text>
  <text x="395" y="119" class="label" fill="#39FF14" font-size="11">DISCOVER</text>

  <line x1="470" y1="115" x2="535" y2="115" stroke="#39FF14" stroke-width="1.5" marker-end="url(#flowArrow)"/>

  <circle cx="585" cy="115" r="12" fill="#39FF14" opacity="0.6"/>
  <text x="585" y="119" text-anchor="middle" class="heading" fill="#1C1917" font-size="10">3</text>
  <text x="610" y="119" class="label" fill="#39FF14" font-size="11">MAP</text>

  <line x1="650" y1="115" x2="715" y2="115" stroke="#39FF14" stroke-width="1.5" marker-end="url(#flowArrow)"/>

  <circle cx="765" cy="115" r="12" fill="#39FF14" opacity="0.5"/>
  <text x="765" y="119" text-anchor="middle" class="heading" fill="#1C1917" font-size="10">4</text>
  <text x="790" y="119" class="label" fill="#39FF14" font-size="11">RESPOND</text>

  <line x1="862" y1="115" x2="927" y2="115" stroke="#39FF14" stroke-width="1.5" marker-end="url(#flowArrow)"/>

  <circle cx="977" cy="115" r="12" fill="#39FF14" opacity="0.4"/>
  <text x="977" y="119" text-anchor="middle" class="heading" fill="#1C1917" font-size="10">5</text>
  <text x="1002" y="119" class="label" fill="#39FF14" font-size="11">GUIDE</text>

  <!-- ============ PRODUCT CARDS ============ -->

  <!-- BEARING (highlighted as entry point) -->
  <rect x="40" y="170" width="210" height="380" rx="14" fill="url(#bearingGlow)" stroke="#39FF14" stroke-width="2.5" filter="url(#glowBearing)"/>
  <rect x="40" y="170" width="210" height="45" rx="14" fill="#39FF14" opacity="0.15"/>

  <!-- Wedge indicator -->
  <polygon points="36,290 20,310 36,330" fill="#39FF14"/>
  <text x="14" y="314" text-anchor="middle" class="mono" fill="#1C1917" font-size="7" transform="rotate(-90,14,314)">ENTRY</text>

  <text x="145" y="200" text-anchor="middle" class="heading" fill="#39FF14" font-size="20">BEARING</text>
  <text x="145" y="230" text-anchor="middle" class="body" fill="#A8A29E" font-size="11">Technical Debt Assessment</text>
  <line x1="60" y1="242" x2="230" y2="242" stroke="#A8A29E" stroke-width="0.5" opacity="0.3"/>

  <text x="60" y="268" class="body" fill="#FAFAF9" font-size="11">Measures where you are</text>

  <circle cx="72" cy="295" r="4" fill="#39FF14"/>
  <text x="84" y="299" class="body" fill="#A8A29E" font-size="10">CMDB health scoring</text>
  <circle cx="72" cy="315" r="4" fill="#39FF14"/>
  <text x="84" y="319" class="body" fill="#A8A29E" font-size="10">8-dimension analysis</text>
  <circle cx="72" cy="335" r="4" fill="#39FF14"/>
  <text x="84" y="339" class="body" fill="#A8A29E" font-size="10">Revenue projection</text>
  <circle cx="72" cy="355" r="4" fill="#39FF14"/>
  <text x="84" y="359" class="body" fill="#A8A29E" font-size="10">SOW generation</text>
  <circle cx="72" cy="375" r="4" fill="#39FF14"/>
  <text x="84" y="379" class="body" fill="#A8A29E" font-size="10">Dual-report output</text>
  <circle cx="72" cy="395" r="4" fill="#39FF14"/>
  <text x="84" y="399" class="body" fill="#A8A29E" font-size="10">Maturity model</text>

  <rect x="60" y="420" width="170" height="24" rx="6" fill="#39FF14" opacity="0.12"/>
  <text x="145" y="436" text-anchor="middle" class="mono" fill="#39FF14" font-size="9">OUTPUT: Assessment + SOW</text>

  <rect x="60" y="500" width="170" height="36" rx="8" fill="#39FF14"/>
  <text x="145" y="522" text-anchor="middle" class="heading" fill="#1C1917" font-size="11">THE WEDGE</text>

  <!-- PATHFINDER -->
  <rect x="280" y="170" width="210" height="380" rx="14" fill="#292524" stroke="#A8A29E" stroke-width="1.5"/>
  <rect x="280" y="170" width="210" height="45" rx="14" fill="#39FF14" opacity="0.06"/>

  <text x="385" y="200" text-anchor="middle" class="heading" fill="#FAFAF9" font-size="20">PATHFINDER</text>
  <text x="385" y="230" text-anchor="middle" class="body" fill="#A8A29E" font-size="11">CMDB-First Discovery</text>
  <line x1="300" y1="242" x2="470" y2="242" stroke="#A8A29E" stroke-width="0.5" opacity="0.3"/>

  <text x="300" y="268" class="body" fill="#FAFAF9" font-size="11">Discovers your terrain</text>

  <circle cx="312" cy="295" r="4" fill="#39FF14" opacity="0.6"/>
  <text x="324" y="299" class="body" fill="#A8A29E" font-size="10">eBPF/ETW agents</text>
  <circle cx="312" cy="315" r="4" fill="#39FF14" opacity="0.6"/>
  <text x="324" y="319" class="body" fill="#A8A29E" font-size="10">Behavioral analysis</text>
  <circle cx="312" cy="335" r="4" fill="#39FF14" opacity="0.6"/>
  <text x="324" y="339" class="body" fill="#A8A29E" font-size="10">Confidence scoring</text>
  <circle cx="312" cy="355" r="4" fill="#39FF14" opacity="0.6"/>
  <text x="324" y="359" class="body" fill="#A8A29E" font-size="10">Shadow IT detection</text>
  <circle cx="312" cy="375" r="4" fill="#39FF14" opacity="0.6"/>
  <text x="324" y="379" class="body" fill="#A8A29E" font-size="10">Traffic classification</text>

  <rect x="300" y="420" width="170" height="24" rx="6" fill="#39FF14" opacity="0.08"/>
  <text x="385" y="436" text-anchor="middle" class="mono" fill="#A8A29E" font-size="9">OUTPUT: Confidence Feed</text>

  <!-- CONTOUR -->
  <rect x="520" y="170" width="210" height="380" rx="14" fill="#292524" stroke="#A8A29E" stroke-width="1.5"/>
  <rect x="520" y="170" width="210" height="45" rx="14" fill="#39FF14" opacity="0.06"/>

  <text x="625" y="200" text-anchor="middle" class="heading" fill="#FAFAF9" font-size="20">CONTOUR</text>
  <text x="625" y="230" text-anchor="middle" class="body" fill="#A8A29E" font-size="11">Service Mapping Intelligence</text>
  <line x1="540" y1="242" x2="710" y2="242" stroke="#A8A29E" stroke-width="0.5" opacity="0.3"/>

  <text x="540" y="268" class="body" fill="#FAFAF9" font-size="11">Plots your waypoints</text>

  <circle cx="552" cy="295" r="4" fill="#39FF14" opacity="0.6"/>
  <text x="564" y="299" class="body" fill="#A8A29E" font-size="10">Service map generation</text>
  <circle cx="552" cy="315" r="4" fill="#39FF14" opacity="0.6"/>
  <text x="564" y="319" class="body" fill="#A8A29E" font-size="10">Dependency mapping</text>
  <circle cx="552" cy="335" r="4" fill="#39FF14" opacity="0.6"/>
  <text x="564" y="339" class="body" fill="#A8A29E" font-size="10">CSDM alignment</text>
  <circle cx="552" cy="355" r="4" fill="#39FF14" opacity="0.6"/>
  <text x="564" y="359" class="body" fill="#A8A29E" font-size="10">Relationship validation</text>
  <circle cx="552" cy="375" r="4" fill="#39FF14" opacity="0.6"/>
  <text x="564" y="379" class="body" fill="#A8A29E" font-size="10">Business service context</text>

  <rect x="540" y="420" width="170" height="24" rx="6" fill="#39FF14" opacity="0.08"/>
  <text x="625" y="436" text-anchor="middle" class="mono" fill="#A8A29E" font-size="9">OUTPUT: Service Maps</text>

  <!-- VANTAGE -->
  <rect x="760" y="170" width="210" height="380" rx="14" fill="#292524" stroke="#A8A29E" stroke-width="1.5"/>
  <rect x="760" y="170" width="210" height="45" rx="14" fill="#39FF14" opacity="0.06"/>

  <text x="865" y="200" text-anchor="middle" class="heading" fill="#FAFAF9" font-size="20">VANTAGE</text>
  <text x="865" y="230" text-anchor="middle" class="body" fill="#A8A29E" font-size="11">Incident Investigation</text>
  <line x1="780" y1="242" x2="950" y2="242" stroke="#A8A29E" stroke-width="0.5" opacity="0.3"/>

  <text x="780" y="268" class="body" fill="#FAFAF9" font-size="11">Spots wrong turns, reroutes</text>

  <circle cx="792" cy="295" r="4" fill="#39FF14" opacity="0.6"/>
  <text x="804" y="299" class="body" fill="#A8A29E" font-size="10">Major incident analysis</text>
  <circle cx="792" cy="315" r="4" fill="#39FF14" opacity="0.6"/>
  <text x="804" y="319" class="body" fill="#A8A29E" font-size="10">Root cause detection</text>
  <circle cx="792" cy="335" r="4" fill="#39FF14" opacity="0.6"/>
  <text x="804" y="339" class="body" fill="#A8A29E" font-size="10">Impact blast radius</text>
  <circle cx="792" cy="355" r="4" fill="#39FF14" opacity="0.6"/>
  <text x="804" y="359" class="body" fill="#A8A29E" font-size="10">Change correlation</text>
  <circle cx="792" cy="375" r="4" fill="#39FF14" opacity="0.6"/>
  <text x="804" y="379" class="body" fill="#A8A29E" font-size="10">Automated remediation</text>

  <rect x="780" y="420" width="170" height="24" rx="6" fill="#39FF14" opacity="0.08"/>
  <text x="865" y="436" text-anchor="middle" class="mono" fill="#A8A29E" font-size="9">OUTPUT: Investigation</text>

  <!-- COMPASS -->
  <rect x="1000" y="170" width="170" height="380" rx="14" fill="#292524" stroke="#A8A29E" stroke-width="1.5"/>
  <rect x="1000" y="170" width="170" height="45" rx="14" fill="#39FF14" opacity="0.06"/>

  <text x="1085" y="200" text-anchor="middle" class="heading" fill="#FAFAF9" font-size="20">COMPASS</text>
  <text x="1085" y="230" text-anchor="middle" class="body" fill="#A8A29E" font-size="11">CRM / Sales Platform</text>
  <line x1="1020" y1="242" x2="1150" y2="242" stroke="#A8A29E" stroke-width="0.5" opacity="0.3"/>

  <text x="1020" y="268" class="body" fill="#FAFAF9" font-size="11">The guide</text>

  <circle cx="1032" cy="295" r="4" fill="#39FF14" opacity="0.6"/>
  <text x="1044" y="299" class="body" fill="#A8A29E" font-size="10">Pipeline mgmt</text>
  <circle cx="1032" cy="315" r="4" fill="#39FF14" opacity="0.6"/>
  <text x="1044" y="319" class="body" fill="#A8A29E" font-size="10">SOW tracking</text>
  <circle cx="1032" cy="335" r="4" fill="#39FF14" opacity="0.6"/>
  <text x="1044" y="339" class="body" fill="#A8A29E" font-size="10">Rate cards</text>
  <circle cx="1032" cy="355" r="4" fill="#39FF14" opacity="0.6"/>
  <text x="1044" y="359" class="body" fill="#A8A29E" font-size="10">Calibration loop</text>

  <rect x="1020" y="420" width="130" height="24" rx="6" fill="#39FF14" opacity="0.08"/>
  <text x="1085" y="436" text-anchor="middle" class="mono" fill="#A8A29E" font-size="9">OUTPUT: Revenue</text>

  <!-- ============ DATA FLOW ARROWS (between products) ============ -->
  <!-- Bearing -> Pathfinder -->
  <line x1="252" y1="320" x2="278" y2="320" stroke="#39FF14" stroke-width="2" marker-end="url(#flowArrow)"/>
  <text x="265" y="312" text-anchor="middle" class="mono" fill="#39FF14" font-size="7">Deploy</text>
  <text x="265" y="336" text-anchor="middle" class="mono" fill="#39FF14" font-size="7">Trigger</text>

  <!-- Pathfinder -> Bearing (feedback) -->
  <path d="M 280 360 L 260 360 L 260 370 L 252 370" fill="none" stroke="#A8A29E" stroke-width="1" stroke-dasharray="4,3" marker-end="url(#dataArrow)"/>
  <text x="265" y="382" text-anchor="middle" class="mono" fill="#A8A29E" font-size="6">Confidence</text>

  <!-- Pathfinder -> Contour -->
  <line x1="492" y1="320" x2="518" y2="320" stroke="#39FF14" stroke-width="1.5" marker-end="url(#flowArrow)"/>
  <text x="505" y="312" text-anchor="middle" class="mono" fill="#A8A29E" font-size="7">Traffic</text>

  <!-- Contour -> Vantage -->
  <line x1="732" y1="320" x2="758" y2="320" stroke="#39FF14" stroke-width="1.5" marker-end="url(#flowArrow)"/>
  <text x="745" y="312" text-anchor="middle" class="mono" fill="#A8A29E" font-size="7">Maps</text>

  <!-- Vantage -> Compass -->
  <line x1="972" y1="320" x2="998" y2="320" stroke="#39FF14" stroke-width="1.5" marker-end="url(#flowArrow)"/>
  <text x="985" y="312" text-anchor="middle" class="mono" fill="#A8A29E" font-size="7">Cases</text>

  <!-- Bearing -> Compass (SOW direct) -->
  <path d="M 145 552 L 145 600 L 1085 600 L 1085 552" fill="none" stroke="#39FF14" stroke-width="1.5" stroke-dasharray="8,4" marker-end="url(#flowArrow)"/>
  <rect x="530" y="588" width="140" height="22" rx="6" fill="#1C1917" stroke="#39FF14" stroke-width="0.8"/>
  <text x="600" y="603" text-anchor="middle" class="mono" fill="#39FF14" font-size="9">SOW + Revenue Data</text>

  <!-- ============ SHARED INFRASTRUCTURE ============ -->
  <rect x="60" y="650" width="1080" height="80" rx="10" fill="#292524" stroke="#A8A29E" stroke-width="0.8"/>
  <text x="120" y="674" class="label" fill="#39FF14" font-size="11">SHARED INFRASTRUCTURE</text>

  <rect x="80" y="690" width="130" height="28" rx="6" fill="#1C1917" stroke="#A8A29E" stroke-width="0.5"/>
  <text x="145" y="708" text-anchor="middle" class="mono" fill="#A8A29E" font-size="9">Supabase (PG)</text>

  <rect x="230" y="690" width="130" height="28" rx="6" fill="#1C1917" stroke="#A8A29E" stroke-width="0.5"/>
  <text x="295" y="708" text-anchor="middle" class="mono" fill="#A8A29E" font-size="9">Vercel Deploy</text>

  <rect x="380" y="690" width="130" height="28" rx="6" fill="#1C1917" stroke="#A8A29E" stroke-width="0.5"/>
  <text x="445" y="708" text-anchor="middle" class="mono" fill="#A8A29E" font-size="9">Auth (Multi-tenant)</text>

  <rect x="530" y="690" width="130" height="28" rx="6" fill="#1C1917" stroke="#A8A29E" stroke-width="0.5"/>
  <text x="595" y="708" text-anchor="middle" class="mono" fill="#A8A29E" font-size="9">Shared Types</text>

  <rect x="680" y="690" width="130" height="28" rx="6" fill="#1C1917" stroke="#A8A29E" stroke-width="0.5"/>
  <text x="745" y="708" text-anchor="middle" class="mono" fill="#A8A29E" font-size="9">Design System</text>

  <rect x="830" y="690" width="130" height="28" rx="6" fill="#1C1917" stroke="#A8A29E" stroke-width="0.5"/>
  <text x="895" y="708" text-anchor="middle" class="mono" fill="#A8A29E" font-size="9">Encryption</text>

  <rect x="980" y="690" width="130" height="28" rx="6" fill="#1C1917" stroke="#A8A29E" stroke-width="0.5"/>
  <text x="1045" y="708" text-anchor="middle" class="mono" fill="#A8A29E" font-size="9">Turborepo</text>

  <!-- Footer -->
  <text x="30" y="780" class="body" fill="#A8A29E" font-size="9" opacity="0.6">AVENNORTH  |  Product Suite Overview  |  Confidential</text>
</svg>