<svg xmlns="http://www.w3.org/2000/svg" viewBox="0 0 1200 800" width="1200" height="800">
  <defs>
    <style>
      @import url('https://fonts.googleapis.com/css2?family=Syne:wght@400;600;700&amp;family=DM+Sans:wght@400;500;600&amp;family=Space+Mono&amp;display=swap');
      .heading { font-family: 'Syne', sans-serif; font-weight: 700; }
      .body { font-family: 'DM Sans', sans-serif; font-weight: 500; }
      .mono { font-family: 'Space Mono', monospace; }
      .label { font-family: 'DM Sans', sans-serif; font-weight: 600; }
    </style>
    <filter id="glow">
      <feGaussianBlur stdDeviation="3" result="blur"/>
      <feMerge><feMergeNode in="blur"/><feMergeNode in="SourceGraphic"/></feMerge>
    </filter>
    <filter id="glowStrong">
      <feGaussianBlur stdDeviation="6" result="blur"/>
      <feMerge><feMergeNode in="blur"/><feMergeNode in="SourceGraphic"/></feMerge>
    </filter>
    <marker id="arrowLime" markerWidth="10" markerHeight="7" refX="10" refY="3.5" orient="auto">
      <polygon points="0 0, 10 3.5, 0 7" fill="#39FF14"/>
    </marker>
    <marker id="arrowGray" markerWidth="10" markerHeight="7" refX="10" refY="3.5" orient="auto">
      <polygon points="0 0, 10 3.5, 0 7" fill="#A8A29E"/>
    </marker>
    <linearGradient id="limeGrad" x1="0%" y1="0%" x2="100%" y2="100%">
      <stop offset="0%" style="stop-color:#39FF14;stop-opacity:0.15"/>
      <stop offset="100%" style="stop-color:#39FF14;stop-opacity:0.05"/>
    </linearGradient>
  </defs>

  <!-- Background -->
  <rect width="1200" height="800" fill="#1C1917"/>

  <!-- Title -->
  <text x="600" y="40" text-anchor="middle" class="heading" fill="#FAFAF9" font-size="24">BEARING REVENUE FLYWHEEL</text>
  <text x="600" y="63" text-anchor="middle" class="body" fill="#A8A29E" font-size="13">Assessment-Led Growth Engine</text>
  <line x1="430" y1="73" x2="770" y2="73" stroke="#39FF14" stroke-width="1" opacity="0.5"/>

  <!-- === CIRCULAR FLYWHEEL === -->
  <!-- Outer ring (decorative) -->
  <circle cx="480" cy="420" r="290" fill="none" stroke="#39FF14" stroke-width="0.5" opacity="0.15"/>
  <circle cx="480" cy="420" r="295" fill="none" stroke="#39FF14" stroke-width="0.3" opacity="0.08"/>

  <!-- Circular arrow path (the flywheel motion) -->
  <path d="M 480 130 A 290 290 0 0 1 770 420" fill="none" stroke="#39FF14" stroke-width="2" opacity="0.4"/>
  <path d="M 770 420 A 290 290 0 0 1 480 710" fill="none" stroke="#39FF14" stroke-width="2" opacity="0.4"/>
  <path d="M 480 710 A 290 290 0 0 1 190 420" fill="none" stroke="#39FF14" stroke-width="2" opacity="0.4"/>
  <path d="M 190 420 A 290 290 0 0 1 480 130" fill="none" stroke="#39FF14" stroke-width="2" opacity="0.4"/>

  <!-- Direction arrows on the ring -->
  <polygon points="620,155 630,170 610,170" fill="#39FF14" opacity="0.6" transform="rotate(30,620,160)"/>
  <polygon points="755,560 765,575 745,575" fill="#39FF14" opacity="0.6" transform="rotate(120,755,565)"/>
  <polygon points="330,690 340,705 320,705" fill="#39FF14" opacity="0.6" transform="rotate(210,330,695)"/>
  <polygon points="200,280 210,295 190,295" fill="#39FF14" opacity="0.6" transform="rotate(310,200,285)"/>

  <!-- Center hub -->
  <circle cx="480" cy="420" r="80" fill="#292524" stroke="#39FF14" stroke-width="2"/>
  <circle cx="480" cy="420" r="75" fill="none" stroke="#39FF14" stroke-width="0.5" opacity="0.3"/>
  <text x="480" y="410" text-anchor="middle" class="heading" fill="#39FF14" font-size="16" filter="url(#glow)">BEARING</text>
  <text x="480" y="430" text-anchor="middle" class="body" fill="#FAFAF9" font-size="11">The Wedge</text>
  <text x="480" y="448" text-anchor="middle" class="mono" fill="#A8A29E" font-size="9">Land &amp; Expand</text>

  <!-- === STAGE 1: BEARING ASSESSMENT (Top) === -->
  <rect x="380" y="95" width="200" height="80" rx="12" fill="#292524" stroke="#39FF14" stroke-width="2"/>
  <text x="480" y="122" text-anchor="middle" class="label" fill="#39FF14" font-size="13" filter="url(#glow)">1. BEARING</text>
  <text x="480" y="140" text-anchor="middle" class="body" fill="#FAFAF9" font-size="11">Free Assessment</text>
  <text x="480" y="160" text-anchor="middle" class="mono" fill="#39FF14" font-size="11">$0 - $5K</text>

  <!-- === STAGE 2: REVEALS GAPS (Top Right) === -->
  <rect x="660" y="180" width="200" height="80" rx="12" fill="#292524" stroke="#39FF14" stroke-width="1.5"/>
  <text x="760" y="207" text-anchor="middle" class="label" fill="#FAFAF9" font-size="13">2. REVEALS GAPS</text>
  <text x="760" y="225" text-anchor="middle" class="body" fill="#A8A29E" font-size="11">CMDB + discovery debt</text>
  <text x="760" y="245" text-anchor="middle" class="mono" fill="#A8A29E" font-size="10">Quantified findings</text>

  <!-- === STAGE 3: PATHFINDER SOLD (Right) === -->
  <rect x="710" y="340" width="200" height="80" rx="12" fill="#292524" stroke="#39FF14" stroke-width="2"/>
  <text x="810" y="367" text-anchor="middle" class="label" fill="#39FF14" font-size="13" filter="url(#glow)">3. PATHFINDER</text>
  <text x="810" y="385" text-anchor="middle" class="body" fill="#FAFAF9" font-size="11">Sold to fix gaps</text>
  <text x="810" y="405" text-anchor="middle" class="mono" fill="#39FF14" font-size="11">$50K - $150K</text>

  <!-- === STAGE 4: CONTOUR BUNDLED (Bottom Right) === -->
  <rect x="660" y="500" width="200" height="80" rx="12" fill="#292524" stroke="#39FF14" stroke-width="1.5"/>
  <text x="760" y="527" text-anchor="middle" class="label" fill="#FAFAF9" font-size="13">4. CONTOUR</text>
  <text x="760" y="545" text-anchor="middle" class="body" fill="#A8A29E" font-size="11">Service mapping bundle</text>
  <text x="760" y="565" text-anchor="middle" class="mono" fill="#39FF14" font-size="11">$30K - $80K</text>

  <!-- === STAGE 5: RE-RUN BEARING (Bottom) === -->
  <rect x="380" y="630" width="200" height="80" rx="12" fill="#292524" stroke="#39FF14" stroke-width="1.5"/>
  <text x="480" y="657" text-anchor="middle" class="label" fill="#FAFAF9" font-size="13">5. RE-ASSESS</text>
  <text x="480" y="675" text-anchor="middle" class="body" fill="#A8A29E" font-size="11">Run Bearing again</text>
  <text x="480" y="695" text-anchor="middle" class="mono" fill="#A8A29E" font-size="10">Prove improvement</text>

  <!-- === STAGE 6: PROVES ROI (Bottom Left) === -->
  <rect x="150" y="530" width="200" height="80" rx="12" fill="#292524" stroke="#39FF14" stroke-width="1.5"/>
  <text x="250" y="557" text-anchor="middle" class="label" fill="#FAFAF9" font-size="13">6. PROVES ROI</text>
  <text x="250" y="575" text-anchor="middle" class="body" fill="#A8A29E" font-size="11">Score improved 34 to 72</text>
  <text x="250" y="595" text-anchor="middle" class="mono" fill="#A8A29E" font-size="10">Data-driven proof</text>

  <!-- === STAGE 7: REFERRAL/EXPANSION (Left) === -->
  <rect x="120" y="340" width="200" height="80" rx="12" fill="#292524" stroke="#39FF14" stroke-width="2"/>
  <text x="220" y="367" text-anchor="middle" class="label" fill="#39FF14" font-size="13" filter="url(#glow)">7. EXPAND</text>
  <text x="220" y="385" text-anchor="middle" class="body" fill="#FAFAF9" font-size="11">Referrals + upsell</text>
  <text x="220" y="405" text-anchor="middle" class="mono" fill="#39FF14" font-size="11">$100K - $500K+</text>

  <!-- Connecting arrows between stages (along the ring) -->
  <line x1="565" y1="118" x2="658" y2="195" stroke="#39FF14" stroke-width="1.5" marker-end="url(#arrowLime)"/>
  <line x1="805" y1="262" x2="815" y2="338" stroke="#39FF14" stroke-width="1.5" marker-end="url(#arrowLime)"/>
  <line x1="810" y1="422" x2="790" y2="498" stroke="#39FF14" stroke-width="1.5" marker-end="url(#arrowLime)"/>
  <line x1="660" y1="558" x2="582" y2="640" stroke="#39FF14" stroke-width="1.5" marker-end="url(#arrowLime)"/>
  <line x1="380" y1="675" x2="310" y2="612" stroke="#39FF14" stroke-width="1.5" marker-end="url(#arrowLime)"/>
  <line x1="230" y1="528" x2="222" y2="422" stroke="#39FF14" stroke-width="1.5" marker-end="url(#arrowLime)"/>
  <line x1="255" y1="340" x2="400" y2="175" stroke="#39FF14" stroke-width="1.5" marker-end="url(#arrowLime)"/>

  <!-- === RIGHT PANEL: Revenue Summary === -->
  <rect x="930" y="95" width="240" height="340" rx="12" fill="#292524" stroke="#39FF14" stroke-width="1.5"/>
  <rect x="930" y="95" width="240" height="32" rx="12" fill="#39FF14" opacity="0.1"/>
  <text x="1050" y="117" text-anchor="middle" class="heading" fill="#39FF14" font-size="14">REVENUE PER ACCOUNT</text>

  <!-- Revenue items -->
  <rect x="945" y="140" width="210" height="36" rx="6" fill="#1C1917" stroke="#39FF14" stroke-width="0.8"/>
  <text x="960" y="157" class="body" fill="#FAFAF9" font-size="10">Bearing Assessment</text>
  <text x="1140" y="157" text-anchor="end" class="mono" fill="#39FF14" font-size="11">$0-5K</text>
  <text x="960" y="170" class="mono" fill="#A8A29E" font-size="8">Entry point (free/low)</text>

  <rect x="945" y="186" width="210" height="36" rx="6" fill="#1C1917" stroke="#39FF14" stroke-width="0.8"/>
  <text x="960" y="203" class="body" fill="#FAFAF9" font-size="10">Remediation SOW</text>
  <text x="1140" y="203" text-anchor="end" class="mono" fill="#39FF14" font-size="11">$50-200K</text>
  <text x="960" y="216" class="mono" fill="#A8A29E" font-size="8">T&amp;M or fixed fee</text>

  <rect x="945" y="232" width="210" height="36" rx="6" fill="#1C1917" stroke="#39FF14" stroke-width="0.8"/>
  <text x="960" y="249" class="body" fill="#FAFAF9" font-size="10">Pathfinder License</text>
  <text x="1140" y="249" text-anchor="end" class="mono" fill="#39FF14" font-size="11">$50-150K</text>
  <text x="960" y="262" class="mono" fill="#A8A29E" font-size="8">Annual subscription</text>

  <rect x="945" y="278" width="210" height="36" rx="6" fill="#1C1917" stroke="#39FF14" stroke-width="0.8"/>
  <text x="960" y="295" class="body" fill="#FAFAF9" font-size="10">Contour License</text>
  <text x="1140" y="295" text-anchor="end" class="mono" fill="#39FF14" font-size="11">$30-80K</text>
  <text x="960" y="308" class="mono" fill="#A8A29E" font-size="8">Bundled with Pathfinder</text>

  <rect x="945" y="324" width="210" height="36" rx="6" fill="#1C1917" stroke="#39FF14" stroke-width="0.8"/>
  <text x="960" y="341" class="body" fill="#FAFAF9" font-size="10">Ongoing Services</text>
  <text x="1140" y="341" text-anchor="end" class="mono" fill="#39FF14" font-size="11">$100-500K+</text>
  <text x="960" y="354" class="mono" fill="#A8A29E" font-size="8">Annual managed services</text>

  <!-- Total -->
  <line x1="945" y1="370" x2="1155" y2="370" stroke="#39FF14" stroke-width="1"/>
  <text x="960" y="392" class="label" fill="#FAFAF9" font-size="12">Total Account Value</text>
  <text x="1140" y="392" text-anchor="end" class="heading" fill="#39FF14" font-size="16" filter="url(#glow)">$230K-935K+</text>
  <text x="1050" y="412" text-anchor="middle" class="mono" fill="#A8A29E" font-size="9">Per account, first 12 months</text>

  <!-- === BOTTOM PANEL: The Wedge Concept === -->
  <rect x="930" y="460" width="240" height="190" rx="12" fill="#1C1917" stroke="#A8A29E" stroke-width="0.8"/>
  <text x="1050" y="488" text-anchor="middle" class="label" fill="#FAFAF9" font-size="13">THE WEDGE POSITION</text>
  <line x1="950" y1="498" x2="1150" y2="498" stroke="#A8A29E" stroke-width="0.3" opacity="0.3"/>

  <circle cx="953" cy="520" r="3" fill="#39FF14"/>
  <text x="965" y="524" class="body" fill="#A8A29E" font-size="10">Free assessment = zero friction</text>

  <circle cx="953" cy="544" r="3" fill="#39FF14"/>
  <text x="965" y="548" class="body" fill="#A8A29E" font-size="10">Data creates urgency (not FUD)</text>

  <circle cx="953" cy="568" r="3" fill="#39FF14"/>
  <text x="965" y="572" class="body" fill="#A8A29E" font-size="10">Each product sells the next one</text>

  <circle cx="953" cy="592" r="3" fill="#39FF14"/>
  <text x="965" y="596" class="body" fill="#A8A29E" font-size="10">Re-assessment proves ROI</text>

  <circle cx="953" cy="616" r="3" fill="#39FF14"/>
  <text x="965" y="620" class="body" fill="#A8A29E" font-size="10">Network effect from benchmarks</text>

  <circle cx="953" cy="640" r="3" fill="#39FF14"/>
  <text x="965" y="644" class="body" fill="#A8A29E" font-size="10">Referral = new account entry</text>

  <!-- Legend -->
  <rect x="40" y="745" width="15" height="15" rx="3" fill="#292524" stroke="#39FF14" stroke-width="2"/>
  <text x="62" y="757" class="body" fill="#A8A29E" font-size="10">Revenue stage</text>
  <rect x="180" y="745" width="15" height="15" rx="3" fill="#292524" stroke="#39FF14" stroke-width="1"/>
  <text x="202" y="757" class="body" fill="#A8A29E" font-size="10">Growth stage</text>
  <line x1="310" y1="752" x2="340" y2="752" stroke="#39FF14" stroke-width="1.5" marker-end="url(#arrowLime)"/>
  <text x="348" y="757" class="body" fill="#A8A29E" font-size="10">Flywheel motion</text>

  <!-- Branding footer -->
  <text x="30" y="785" class="body" fill="#A8A29E" font-size="9" opacity="0.6">AVENNORTH BEARING  |  Revenue Flywheel  |  Confidential</text>
</svg>