<svg xmlns="http://www.w3.org/2000/svg" viewBox="0 0 1200 800" width="1200" height="800">
  <defs>
    <style>
      @import url('https://fonts.googleapis.com/css2?family=Syne:wght@400;600;700&amp;family=DM+Sans:wght@400;500;600&amp;family=Space+Mono&amp;display=swap');
      .heading { font-family: 'Syne', sans-serif; font-weight: 700; }
      .body { font-family: 'DM Sans', sans-serif; font-weight: 500; }
      .mono { font-family: 'Space Mono', monospace; }
      .label { font-family: 'DM Sans', sans-serif; font-weight: 600; }
    </style>
    <filter id="glow">
      <feGaussianBlur stdDeviation="2" result="blur"/>
      <feMerge><feMergeNode in="blur"/><feMergeNode in="SourceGraphic"/></feMerge>
    </filter>
    <marker id="arrowLime" markerWidth="10" markerHeight="7" refX="10" refY="3.5" orient="auto">
      <polygon points="0 0, 10 3.5, 0 7" fill="#39FF14"/>
    </marker>
    <marker id="arrowGray" markerWidth="10" markerHeight="7" refX="10" refY="3.5" orient="auto">
      <polygon points="0 0, 10 3.5, 0 7" fill="#A8A29E"/>
    </marker>
    <linearGradient id="limeGrad" x1="0%" y1="0%" x2="100%" y2="100%">
      <stop offset="0%" style="stop-color:#39FF14;stop-opacity:0.15"/>
      <stop offset="100%" style="stop-color:#39FF14;stop-opacity:0.05"/>
    </linearGradient>
  </defs>

  <!-- Background -->
  <rect width="1200" height="800" fill="#1C1917" rx="0"/>

  <!-- Title -->
  <text x="600" y="40" text-anchor="middle" class="heading" fill="#FAFAF9" font-size="24">AVENNORTH BEARING</text>
  <text x="600" y="60" text-anchor="middle" class="body" fill="#A8A29E" font-size="13">System Architecture (Updated)</text>
  <line x1="480" y1="68" x2="720" y2="68" stroke="#39FF14" stroke-width="1" opacity="0.5"/>

  <!-- === EXTERNAL SYSTEMS (Top) === -->
  <!-- ServiceNow -->
  <rect x="30" y="85" width="180" height="60" rx="10" fill="none" stroke="#A8A29E" stroke-width="1.5" stroke-dasharray="6,3"/>
  <text x="120" y="110" text-anchor="middle" class="label" fill="#FAFAF9" font-size="12">ServiceNow CMDB</text>
  <text x="120" y="130" text-anchor="middle" class="mono" fill="#A8A29E" font-size="9">REST API / Table API</text>

  <!-- Claude API -->
  <rect x="230" y="85" width="180" height="60" rx="10" fill="none" stroke="#A8A29E" stroke-width="1.5" stroke-dasharray="6,3"/>
  <text x="320" y="110" text-anchor="middle" class="label" fill="#FAFAF9" font-size="12">Claude API</text>
  <text x="320" y="130" text-anchor="middle" class="mono" fill="#A8A29E" font-size="9">Anthropic LLM</text>

  <!-- Pathfinder -->
  <rect x="430" y="85" width="180" height="60" rx="10" fill="none" stroke="#A8A29E" stroke-width="1.5" stroke-dasharray="6,3"/>
  <text x="520" y="110" text-anchor="middle" class="label" fill="#FAFAF9" font-size="12">Pathfinder Gateway</text>
  <text x="520" y="130" text-anchor="middle" class="mono" fill="#A8A29E" font-size="9">eBPF/ETW Agents</text>

  <!-- Contour -->
  <rect x="630" y="85" width="180" height="60" rx="10" fill="none" stroke="#A8A29E" stroke-width="1.5" stroke-dasharray="6,3"/>
  <text x="720" y="110" text-anchor="middle" class="label" fill="#FAFAF9" font-size="12">Contour</text>
  <text x="720" y="130" text-anchor="middle" class="mono" fill="#A8A29E" font-size="9">Service Map Intel</text>

  <!-- Doc Sites (NEW) -->
  <rect x="830" y="85" width="160" height="60" rx="10" fill="none" stroke="#39FF14" stroke-width="1.5" stroke-dasharray="6,3"/>
  <text x="910" y="107" text-anchor="middle" class="label" fill="#39FF14" font-size="11">Doc Sites</text>
  <text x="910" y="122" text-anchor="middle" class="mono" fill="#A8A29E" font-size="8">Customer :4210</text>
  <text x="910" y="135" text-anchor="middle" class="mono" fill="#A8A29E" font-size="8">Internal  :4211</text>
  <text x="990" y="80" class="mono" fill="#39FF14" font-size="8">NEW</text>

  <!-- External label -->
  <text x="15" y="105" class="body" fill="#A8A29E" font-size="9" transform="rotate(-90,15,105)">EXTERNAL</text>

  <!-- === CORE SERVICES LAYER === -->
  <rect x="25" y="170" width="1150" height="85" rx="12" fill="url(#limeGrad)" stroke="#39FF14" stroke-width="1" opacity="0.8"/>
  <text x="45" y="190" class="label" fill="#39FF14" font-size="10">CORE SERVICES</text>

  <!-- SN REST Client -->
  <rect x="40" y="200" width="180" height="42" rx="8" fill="#292524" stroke="#39FF14" stroke-width="1"/>
  <text x="130" y="220" text-anchor="middle" class="body" fill="#FAFAF9" font-size="11">SN REST Client</text>
  <text x="130" y="234" text-anchor="middle" class="mono" fill="#A8A29E" font-size="8">OAuth 2.0 + Basic Auth</text>

  <!-- Claude API Client -->
  <rect x="240" y="200" width="180" height="42" rx="8" fill="#292524" stroke="#39FF14" stroke-width="1"/>
  <text x="330" y="220" text-anchor="middle" class="body" fill="#FAFAF9" font-size="11">Claude API Client</text>
  <text x="330" y="234" text-anchor="middle" class="mono" fill="#A8A29E" font-size="8">Analysis + Summaries</text>

  <!-- Pathfinder Webhook -->
  <rect x="440" y="200" width="180" height="42" rx="8" fill="#292524" stroke="#39FF14" stroke-width="1"/>
  <text x="530" y="220" text-anchor="middle" class="body" fill="#FAFAF9" font-size="11">Pathfinder Webhook</text>
  <text x="530" y="234" text-anchor="middle" class="mono" fill="#A8A29E" font-size="8">Confidence Feed</text>

  <!-- Contour Webhook -->
  <rect x="640" y="200" width="180" height="42" rx="8" fill="#292524" stroke="#39FF14" stroke-width="1"/>
  <text x="730" y="220" text-anchor="middle" class="body" fill="#FAFAF9" font-size="11">Contour Webhook</text>
  <text x="730" y="234" text-anchor="middle" class="mono" fill="#A8A29E" font-size="8">Service Map Intel</text>

  <!-- AI Chatbot Service (NEW) -->
  <rect x="840" y="200" width="150" height="42" rx="8" fill="#292524" stroke="#39FF14" stroke-width="1.5"/>
  <text x="915" y="220" text-anchor="middle" class="body" fill="#39FF14" font-size="11">AI Chatbot</text>
  <text x="915" y="234" text-anchor="middle" class="mono" fill="#A8A29E" font-size="8">Keyword Engine</text>

  <!-- Inline Helper Service (NEW) -->
  <rect x="1010" y="200" width="150" height="42" rx="8" fill="#292524" stroke="#39FF14" stroke-width="1.5"/>
  <text x="1085" y="220" text-anchor="middle" class="body" fill="#39FF14" font-size="11">Inline Helper</text>
  <text x="1085" y="234" text-anchor="middle" class="mono" fill="#A8A29E" font-size="8">Context Tips</text>

  <!-- NEW labels -->
  <text x="980" y="195" class="mono" fill="#39FF14" font-size="7">NEW</text>
  <text x="1150" y="195" class="mono" fill="#39FF14" font-size="7">NEW</text>

  <!-- Arrows from external to core services -->
  <line x1="120" y1="147" x2="120" y2="198" stroke="#39FF14" stroke-width="1.5" marker-end="url(#arrowLime)"/>
  <line x1="320" y1="147" x2="330" y2="198" stroke="#A8A29E" stroke-width="1" marker-end="url(#arrowGray)"/>
  <line x1="520" y1="147" x2="530" y2="198" stroke="#39FF14" stroke-width="1.5" marker-end="url(#arrowLime)"/>
  <line x1="720" y1="147" x2="730" y2="198" stroke="#A8A29E" stroke-width="1" marker-end="url(#arrowGray)"/>
  <!-- Claude API to Chatbot (NEW) -->
  <line x1="380" y1="147" x2="915" y2="198" stroke="#A8A29E" stroke-width="1" stroke-dasharray="4,3" marker-end="url(#arrowGray)"/>

  <!-- === BEARING BACKEND (Center) === -->
  <rect x="100" y="285" width="900" height="215" rx="14" fill="#292524" stroke="#39FF14" stroke-width="2"/>
  <rect x="100" y="285" width="900" height="32" rx="14" fill="#39FF14" opacity="0.1"/>
  <text x="550" y="307" text-anchor="middle" class="heading" fill="#39FF14" font-size="15" filter="url(#glow)">BEARING BACKEND</text>

  <!-- Assessment Engine -->
  <rect x="120" y="330" width="250" height="150" rx="10" fill="#1C1917" stroke="#A8A29E" stroke-width="1"/>
  <text x="245" y="352" text-anchor="middle" class="label" fill="#FAFAF9" font-size="12">Assessment Engine</text>
  <line x1="140" y1="360" x2="350" y2="360" stroke="#A8A29E" stroke-width="0.5" opacity="0.3"/>
  <circle cx="137" cy="380" r="3" fill="#39FF14"/>
  <text x="147" y="384" class="body" fill="#A8A29E" font-size="10">Export Parser</text>
  <circle cx="137" cy="400" r="3" fill="#39FF14"/>
  <text x="147" y="404" class="body" fill="#A8A29E" font-size="10">Live Scan Engine</text>
  <circle cx="137" cy="420" r="3" fill="#39FF14"/>
  <text x="147" y="424" class="body" fill="#A8A29E" font-size="10">Instance Scan Importer</text>
  <circle cx="137" cy="440" r="3" fill="#39FF14"/>
  <text x="147" y="444" class="body" fill="#A8A29E" font-size="10">Module Scanners (12+)</text>
  <circle cx="137" cy="460" r="3" fill="#39FF14"/>
  <text x="147" y="464" class="body" fill="#A8A29E" font-size="10">Pathfinder Fusion</text>

  <!-- Scoring Engine -->
  <rect x="400" y="330" width="250" height="150" rx="10" fill="#1C1917" stroke="#A8A29E" stroke-width="1"/>
  <text x="525" y="352" text-anchor="middle" class="label" fill="#FAFAF9" font-size="12">Scoring Engine</text>
  <line x1="420" y1="360" x2="630" y2="360" stroke="#A8A29E" stroke-width="0.5" opacity="0.3"/>
  <circle cx="417" cy="380" r="3" fill="#39FF14"/>
  <text x="427" y="384" class="body" fill="#A8A29E" font-size="10">Composite Scorer</text>
  <circle cx="417" cy="400" r="3" fill="#39FF14"/>
  <text x="427" y="404" class="body" fill="#A8A29E" font-size="10">Health Index (0-100)</text>
  <circle cx="417" cy="420" r="3" fill="#39FF14"/>
  <text x="427" y="424" class="body" fill="#A8A29E" font-size="10">Pathfinder Fusion Score</text>
  <circle cx="417" cy="440" r="3" fill="#39FF14"/>
  <text x="427" y="444" class="body" fill="#A8A29E" font-size="10">Benchmark Engine</text>
  <circle cx="417" cy="460" r="3" fill="#39FF14"/>
  <text x="427" y="464" class="body" fill="#A8A29E" font-size="10">Maturity Calculator</text>

  <!-- Report Generator -->
  <rect x="680" y="330" width="290" height="150" rx="10" fill="#1C1917" stroke="#A8A29E" stroke-width="1"/>
  <text x="825" y="352" text-anchor="middle" class="label" fill="#FAFAF9" font-size="12">Report Generator</text>
  <line x1="700" y1="360" x2="950" y2="360" stroke="#A8A29E" stroke-width="0.5" opacity="0.3"/>
  <circle cx="697" cy="380" r="3" fill="#39FF14"/>
  <text x="707" y="384" class="body" fill="#A8A29E" font-size="10">Revenue Calculator</text>
  <circle cx="697" cy="400" r="3" fill="#39FF14"/>
  <text x="707" y="404" class="body" fill="#A8A29E" font-size="10">Consultant Report</text>
  <circle cx="697" cy="420" r="3" fill="#39FF14"/>
  <text x="707" y="424" class="body" fill="#A8A29E" font-size="10">Customer Report</text>
  <circle cx="697" cy="440" r="3" fill="#39FF14"/>
  <text x="707" y="444" class="body" fill="#A8A29E" font-size="10">SOW Generator</text>
  <circle cx="697" cy="460" r="3" fill="#39FF14"/>
  <text x="707" y="464" class="body" fill="#A8A29E" font-size="10">Compass Pipeline Sync</text>

  <!-- Internal arrows -->
  <line x1="372" y1="405" x2="398" y2="405" stroke="#39FF14" stroke-width="1.5" marker-end="url(#arrowLime)"/>
  <line x1="652" y1="405" x2="678" y2="405" stroke="#39FF14" stroke-width="1.5" marker-end="url(#arrowLime)"/>

  <!-- Core services to backend arrows -->
  <line x1="130" y1="244" x2="245" y2="283" stroke="#39FF14" stroke-width="1.5" marker-end="url(#arrowLime)"/>
  <line x1="330" y1="244" x2="380" y2="283" stroke="#A8A29E" stroke-width="1" marker-end="url(#arrowGray)"/>
  <line x1="530" y1="244" x2="525" y2="283" stroke="#39FF14" stroke-width="1.5" marker-end="url(#arrowLime)"/>
  <line x1="730" y1="244" x2="650" y2="283" stroke="#A8A29E" stroke-width="1" marker-end="url(#arrowGray)"/>

  <!-- === PROTOTYPE UI LAYER (NEW) === -->
  <rect x="1020" y="285" width="155" height="215" rx="14" fill="#292524" stroke="#39FF14" stroke-width="2"/>
  <rect x="1020" y="285" width="155" height="32" rx="14" fill="#39FF14" opacity="0.1"/>
  <text x="1097" y="307" text-anchor="middle" class="heading" fill="#39FF14" font-size="12" filter="url(#glow)">PROTOTYPE UI</text>
  <text x="1097" y="325" text-anchor="middle" class="mono" fill="#A8A29E" font-size="8">Next.js + React</text>

  <circle cx="1037" cy="348" r="3" fill="#39FF14"/>
  <text x="1047" y="352" class="body" fill="#A8A29E" font-size="9">Dashboard</text>
  <circle cx="1037" cy="366" r="3" fill="#39FF14"/>
  <text x="1047" y="370" class="body" fill="#A8A29E" font-size="9">Findings</text>
  <circle cx="1037" cy="384" r="3" fill="#39FF14"/>
  <text x="1047" y="388" class="body" fill="#A8A29E" font-size="9">Revenue/SOW</text>
  <circle cx="1037" cy="402" r="3" fill="#39FF14"/>
  <text x="1047" y="406" class="body" fill="#A8A29E" font-size="9">Pathfinder</text>
  <circle cx="1037" cy="420" r="3" fill="#39FF14"/>
  <text x="1047" y="424" class="body" fill="#A8A29E" font-size="9">Benchmarking</text>
  <circle cx="1037" cy="438" r="3" fill="#39FF14"/>
  <text x="1047" y="442" class="body" fill="#A8A29E" font-size="9">Reports</text>
  <circle cx="1037" cy="456" r="3" fill="#39FF14"/>
  <text x="1047" y="460" class="body" fill="#A8A29E" font-size="9">Architecture</text>

  <!-- AI Components in UI (NEW) -->
  <circle cx="1037" cy="478" r="3" fill="#39FF14"/>
  <text x="1047" y="482" class="body" fill="#39FF14" font-size="9">AI Chatbot</text>
  <text x="1162" y="482" class="mono" fill="#39FF14" font-size="7">NEW</text>
  <circle cx="1037" cy="494" r="3" fill="#39FF14"/>
  <text x="1047" y="498" class="body" fill="#39FF14" font-size="9">Inline Helper</text>

  <!-- Arrow from Chatbot service to UI -->
  <line x1="915" y1="244" x2="1097" y2="283" stroke="#39FF14" stroke-width="1.5" marker-end="url(#arrowLime)"/>
  <line x1="1085" y1="244" x2="1097" y2="283" stroke="#39FF14" stroke-width="1.5" marker-end="url(#arrowLime)"/>

  <!-- Arrow from backend to UI -->
  <line x1="1000" y1="390" x2="1018" y2="390" stroke="#A8A29E" stroke-width="1" marker-end="url(#arrowGray)"/>

  <!-- === API LAYER (Bottom) === -->
  <rect x="25" y="530" width="1150" height="95" rx="12" fill="url(#limeGrad)" stroke="#39FF14" stroke-width="1" opacity="0.8"/>
  <text x="45" y="550" class="label" fill="#39FF14" font-size="10">API ENDPOINTS</text>

  <!-- Endpoint boxes -->
  <rect x="40" y="562" width="130" height="48" rx="6" fill="#292524" stroke="#A8A29E" stroke-width="0.8"/>
  <text x="105" y="580" text-anchor="middle" class="mono" fill="#39FF14" font-size="8">POST</text>
  <text x="105" y="596" text-anchor="middle" class="mono" fill="#FAFAF9" font-size="8">/api/assessments</text>

  <rect x="185" y="562" width="130" height="48" rx="6" fill="#292524" stroke="#A8A29E" stroke-width="0.8"/>
  <text x="250" y="580" text-anchor="middle" class="mono" fill="#39FF14" font-size="8">GET</text>
  <text x="250" y="596" text-anchor="middle" class="mono" fill="#FAFAF9" font-size="8">/api/assessments/:id</text>

  <rect x="330" y="562" width="120" height="48" rx="6" fill="#292524" stroke="#A8A29E" stroke-width="0.8"/>
  <text x="390" y="580" text-anchor="middle" class="mono" fill="#39FF14" font-size="8">GET</text>
  <text x="390" y="596" text-anchor="middle" class="mono" fill="#FAFAF9" font-size="8">/api/findings</text>

  <rect x="465" y="562" width="120" height="48" rx="6" fill="#292524" stroke="#A8A29E" stroke-width="0.8"/>
  <text x="525" y="580" text-anchor="middle" class="mono" fill="#39FF14" font-size="8">POST</text>
  <text x="525" y="596" text-anchor="middle" class="mono" fill="#FAFAF9" font-size="8">/api/reports</text>

  <rect x="600" y="562" width="130" height="48" rx="6" fill="#292524" stroke="#A8A29E" stroke-width="0.8"/>
  <text x="665" y="580" text-anchor="middle" class="mono" fill="#39FF14" font-size="8">POST</text>
  <text x="665" y="596" text-anchor="middle" class="mono" fill="#FAFAF9" font-size="8">/api/sow/generate</text>

  <rect x="745" y="562" width="130" height="48" rx="6" fill="#292524" stroke="#A8A29E" stroke-width="0.8"/>
  <text x="810" y="580" text-anchor="middle" class="mono" fill="#39FF14" font-size="8">POST</text>
  <text x="810" y="596" text-anchor="middle" class="mono" fill="#FAFAF9" font-size="8">/api/webhooks/pf</text>

  <rect x="890" y="562" width="120" height="48" rx="6" fill="#292524" stroke="#A8A29E" stroke-width="0.8"/>
  <text x="950" y="580" text-anchor="middle" class="mono" fill="#39FF14" font-size="8">POST</text>
  <text x="950" y="596" text-anchor="middle" class="mono" fill="#FAFAF9" font-size="8">/api/export</text>

  <!-- NEW: Chatbot endpoint -->
  <rect x="1025" y="562" width="130" height="48" rx="6" fill="#292524" stroke="#39FF14" stroke-width="1"/>
  <text x="1090" y="580" text-anchor="middle" class="mono" fill="#39FF14" font-size="8">POST</text>
  <text x="1090" y="596" text-anchor="middle" class="mono" fill="#39FF14" font-size="8">/api/chat</text>
  <text x="1155" y="558" class="mono" fill="#39FF14" font-size="7">NEW</text>

  <!-- Backend to API arrows -->
  <line x1="245" y1="502" x2="245" y2="528" stroke="#A8A29E" stroke-width="1" marker-end="url(#arrowGray)"/>
  <line x1="525" y1="502" x2="525" y2="528" stroke="#A8A29E" stroke-width="1" marker-end="url(#arrowGray)"/>
  <line x1="825" y1="502" x2="825" y2="528" stroke="#A8A29E" stroke-width="1" marker-end="url(#arrowGray)"/>

  <!-- === DOCUMENTATION LAYER (NEW) === -->
  <rect x="25" y="645" width="550" height="75" rx="12" fill="#292524" stroke="#39FF14" stroke-width="1.5"/>
  <rect x="25" y="645" width="550" height="28" rx="12" fill="#39FF14" opacity="0.08"/>
  <text x="45" y="665" class="label" fill="#39FF14" font-size="10">DOCUMENTATION SITES (NEW)</text>

  <rect x="40" y="680" width="165" height="28" rx="6" fill="#1C1917" stroke="#39FF14" stroke-width="0.8"/>
  <text x="122" y="698" text-anchor="middle" class="body" fill="#FAFAF9" font-size="10">Customer Docs</text>
  <text x="210" y="698" class="mono" fill="#39FF14" font-size="8">:4210</text>

  <rect x="230" y="680" width="165" height="28" rx="6" fill="#1C1917" stroke="#39FF14" stroke-width="0.8"/>
  <text x="312" y="698" text-anchor="middle" class="body" fill="#FAFAF9" font-size="10">Internal Docs</text>
  <text x="400" y="698" class="mono" fill="#39FF14" font-size="8">:4211</text>

  <rect x="420" y="680" width="140" height="28" rx="6" fill="#1C1917" stroke="#A8A29E" stroke-width="0.5"/>
  <text x="490" y="698" text-anchor="middle" class="body" fill="#A8A29E" font-size="10">MkDocs Material</text>

  <!-- Database (bottom right) -->
  <rect x="610" y="645" width="270" height="75" rx="12" fill="#292524" stroke="#A8A29E" stroke-width="1"/>
  <rect x="610" y="645" width="270" height="28" rx="12" fill="#A8A29E" opacity="0.05"/>
  <text x="630" y="665" class="label" fill="#A8A29E" font-size="10">DATA LAYER</text>
  <rect x="625" y="680" width="110" height="28" rx="6" fill="#1C1917" stroke="#A8A29E" stroke-width="0.5"/>
  <text x="680" y="698" text-anchor="middle" class="body" fill="#A8A29E" font-size="10">Supabase (PG)</text>
  <rect x="750" y="680" width="110" height="28" rx="6" fill="#1C1917" stroke="#A8A29E" stroke-width="0.5"/>
  <text x="805" y="698" text-anchor="middle" class="body" fill="#A8A29E" font-size="10">File Storage</text>

  <!-- Deployment info -->
  <rect x="915" y="645" width="260" height="75" rx="12" fill="#1C1917" stroke="#A8A29E" stroke-width="0.8"/>
  <text x="935" y="665" class="label" fill="#A8A29E" font-size="10">DEPLOYMENT</text>
  <text x="935" y="688" class="body" fill="#A8A29E" font-size="10">Vercel (Next.js) + Supabase (DB)</text>
  <text x="935" y="706" class="mono" fill="#A8A29E" font-size="9">Prototype: localhost:4200</text>
  <text x="935" y="718" class="mono" fill="#39FF14" font-size="9">Docs: :4210 (cust) | :4211 (int)</text>

  <!-- Branding footer -->
  <text x="30" y="780" class="body" fill="#A8A29E" font-size="9" opacity="0.6">AVENNORTH BEARING  |  System Architecture (Updated)  |  Confidential</text>
</svg>